<?xml version="1.0" standalone="no"?>
<!DOCTYPE svg PUBLIC "-//W3C//DTD SVG 20010904//EN"
 "http://www.w3.org/TR/2001/REC-SVG-20010904/DTD/svg10.dtd">
<svg version="1.0" xmlns="http://www.w3.org/2000/svg"
 width="1296.000000pt" height="1296.000000pt" viewBox="0 0 1296.000000 1296.000000"
 preserveAspectRatio="xMidYMid meet">
<metadata>
Created by potrace 1.14, written by Peter Selinger 2001-2017
</metadata>
<g transform="translate(0.000000,1296.000000) scale(0.100000,-0.100000)"
fill="#000000" stroke="none">
<path d="M2600 10534 c-25 -9 -101 -42 -169 -75 -68 -33 -126 -58 -127 -56 -2
2 -10 21 -17 43 -8 21 -20 39 -28 39 -24 0 -57 -64 -64 -123 -3 -31 -10 -64
-16 -72 -5 -8 -26 -49 -47 -90 -36 -73 -37 -77 -37 -190 0 -110 1 -118 33
-183 37 -75 51 -84 27 -17 -20 56 -19 184 1 243 9 26 19 47 23 47 4 0 23 -16
42 -36 40 -42 147 -99 239 -126 74 -23 364 -36 435 -21 l40 9 -58 33 c-31 18
-57 37 -57 42 0 5 27 9 60 9 l60 0 0 -73 c0 -41 -7 -96 -15 -122 -18 -61 -12
-69 13 -18 28 54 52 140 52 185 l0 38 46 0 47 0 -7 41 c-9 59 -41 117 -94 172
l-46 47 63 0 c59 0 62 1 59 22 -8 57 -123 106 -303 128 -43 6 -82 13 -87 18
-4 4 8 27 27 51 19 24 35 45 35 47 0 10 -90 1 -130 -12z"/>
<path d="M5284 10459 c-64 -15 -144 -69 -180 -122 -55 -80 -66 -194 -29 -284
19 -44 91 -121 140 -146 61 -33 202 -31 268 3 59 29 101 76 133 144 65 140 -6
324 -150 386 -53 23 -130 31 -182 19z m140 -180 c104 -82 51 -239 -81 -239
-21 0 -52 9 -69 19 -32 20 -64 74 -64 111 0 37 32 91 64 111 43 26 115 25 150
-2z"/>
<path d="M2810 9351 c-7 -14 -62 -134 -122 -266 -60 -132 -113 -244 -117 -248
-6 -6 -31 136 -43 252 -4 33 -41 58 -118 77 -55 14 -74 25 -133 80 -38 35 -78
64 -88 64 -27 0 -600 -383 -626 -417 -11 -16 -35 -58 -53 -94 l-33 -64 -28
-470 c-51 -861 -73 -1407 -64 -1550 5 -82 3 -117 -14 -192 -12 -51 -21 -106
-21 -121 0 -30 26 -62 51 -62 8 0 59 -14 114 -30 128 -38 183 -39 218 -4 14
14 31 42 38 62 17 54 17 54 58 26 38 -24 38 -27 45 -102 4 -42 29 -288 57
-547 162 -1540 171 -1629 167 -1654 -2 -14 -39 33 -123 156 -203 297 -281 397
-372 472 l-38 31 32 158 c18 87 48 212 69 277 32 107 35 129 32 205 -3 70 -9
94 -33 140 -26 47 -35 55 -62 58 -18 2 -33 -1 -33 -5 0 -19 -130 -720 -155
-839 -4 -16 -17 -25 -51 -33 -26 -7 -48 -10 -50 -8 -2 2 14 43 35 93 43 99 96
278 135 455 30 135 31 149 11 149 -8 0 -29 13 -48 29 l-33 30 -115 -397 -115
-397 -71 -35 c-50 -24 -97 -60 -155 -115 -46 -44 -126 -112 -178 -152 l-95
-72 -67 -178 c-87 -232 -168 -458 -168 -471 0 -6 15 -15 33 -21 224 -70 724
-235 731 -242 8 -7 -8 -226 -18 -236 -2 -2 -184 55 -404 127 -220 71 -405 130
-411 130 -8 0 -27 -52 -46 -131 l-6 -25 416 -135 c229 -73 421 -136 426 -139
7 -5 -23 -226 -33 -235 -2 -2 -191 58 -421 132 -230 74 -420 133 -423 131 -2
-3 1 -65 7 -139 19 -239 52 -352 117 -395 17 -12 66 -31 109 -43 76 -21 424
-93 513 -106 40 -6 50 -13 83 -58 74 -102 63 -95 96 -63 16 16 35 41 42 57
l12 29 96 -7 c157 -13 332 -9 366 8 25 12 37 31 69 113 35 87 38 100 24 110
-23 17 -118 243 -118 282 0 9 32 2 106 -23 87 -29 108 -33 115 -22 12 19 52
139 48 144 -2 1 -74 25 -159 52 l-155 49 -7 40 c-9 50 -10 214 -2 214 4 0 97
-29 207 -65 110 -36 200 -64 202 -63 12 17 95 278 96 301 1 58 8 15 29 -198
21 -212 56 -498 66 -546 7 -34 56 -57 155 -71 88 -12 204 -1 306 30 l58 18 -3
89 c-5 169 -52 1350 -62 1574 l-11 223 36 297 c19 163 51 423 70 578 19 154
35 285 35 290 1 18 34 -58 176 -412 l148 -370 13 -315 c43 -1057 84 -1767 109
-1855 8 -31 148 -60 289 -60 190 0 200 19 225 420 30 487 23 1395 -16 2020
-27 445 -49 645 -74 694 -33 66 -51 172 -55 326 -3 145 -19 235 -55 306 -17
32 -17 38 -5 43 8 3 15 17 15 31 0 29 -13 27 190 29 l155 1 14 29 c39 82 -6
665 -89 1136 -16 91 -61 352 -100 580 -87 511 -84 499 -131 591 -83 161 -241
273 -454 322 -33 8 -98 33 -145 57 -47 23 -117 57 -156 75 l-72 33 -12 -27z
m-1370 -6503 c6 -24 22 -82 36 -130 13 -48 24 -91 24 -97 0 -8 -107 23 -119
34 -7 7 32 235 40 235 4 0 13 -19 19 -42z"/>
<path d="M10177 8510 c-237 -59 -312 -349 -131 -509 107 -94 276 -96 383 -5
133 114 140 315 14 436 -68 66 -180 99 -266 78z m134 -178 c38 -21 59 -63 59
-116 0 -39 -6 -52 -34 -84 -33 -35 -38 -37 -96 -37 -58 0 -63 2 -96 37 -28 31
-34 45 -34 83 0 53 21 99 52 116 56 30 98 30 149 1z"/>
<path d="M7300 7783 c-190 -19 -455 -79 -618 -139 -140 -51 -400 -181 -522
-261 -145 -95 -293 -217 -432 -354 -115 -114 -136 -142 -100 -132 10 2 51 -12
92 -31 41 -20 85 -36 97 -36 14 0 23 -6 23 -16 0 -17 -43 -64 -75 -81 -28 -16
-16 -23 64 -36 92 -14 121 -3 121 47 0 34 0 35 56 42 62 7 69 4 81 -46 7 -27
16 -37 41 -45 l32 -11 -23 -22 c-18 -19 -20 -25 -9 -42 6 -11 12 -22 12 -25 0
-11 -37 -4 -87 15 l-52 20 -27 -25 c-15 -14 -38 -25 -51 -25 -67 0 -136 -66
-131 -125 3 -25 12 -35 59 -60 81 -43 89 -52 89 -97 0 -25 5 -41 15 -44 22 -9
60 20 75 55 8 20 31 41 65 61 58 33 75 63 75 132 0 34 2 39 20 33 10 -3 33 1
49 9 49 26 73 20 118 -28 29 -30 54 -47 78 -52 29 -5 35 -11 35 -31 0 -28 22
-74 44 -92 20 -17 20 -51 1 -77 -23 -30 -18 -53 20 -87 61 -53 36 -107 -44
-92 -69 13 -76 33 -32 89 44 56 33 70 -48 63 -131 -12 -216 -54 -156 -77 19
-7 25 -17 25 -40 0 -18 6 -33 15 -36 24 -10 17 -31 -12 -39 -50 -12 -246 -114
-333 -172 -61 -42 -87 -66 -93 -88 -14 -43 -35 -63 -98 -96 -75 -37 -113 -82
-105 -123 18 -93 18 -102 3 -115 -26 -21 -54 -3 -80 53 -29 61 -58 86 -100 86
-41 0 -64 -16 -72 -49 -6 -27 -8 -28 -66 -29 -132 -2 -187 -88 -155 -241 18
-83 37 -111 77 -111 29 0 59 32 73 77 11 36 62 83 88 83 24 0 58 -27 58 -46 0
-6 -16 -25 -35 -44 -20 -19 -35 -44 -35 -57 0 -19 7 -24 42 -29 24 -4 52 -17
66 -31 25 -25 26 -41 6 -123 -8 -37 26 -75 79 -88 24 -6 52 -21 62 -32 10 -11
27 -20 38 -20 22 0 87 61 87 83 0 36 26 40 132 17 164 -34 191 -45 240 -99 39
-42 51 -49 97 -55 73 -10 126 -59 146 -135 16 -63 25 -71 80 -71 27 0 54 -10
84 -30 28 -19 57 -30 79 -30 27 0 42 -8 71 -40 22 -24 49 -42 69 -46 49 -10
66 -42 59 -114 -3 -42 -14 -74 -34 -106 -15 -25 -38 -62 -50 -82 -27 -45 -29
-79 -6 -143 13 -35 15 -54 8 -65 -6 -9 -53 -41 -105 -70 -52 -30 -96 -57 -99
-59 -2 -3 -5 -37 -5 -76 -1 -67 -3 -72 -33 -100 -18 -16 -33 -31 -33 -33 0 -3
11 -16 25 -30 14 -14 25 -30 25 -36 0 -6 -37 -10 -100 -10 -110 0 -107 2 -89
-64 17 -60 6 -85 -41 -92 -29 -5 -40 -11 -40 -25 0 -9 -14 -29 -31 -42 -28
-21 -30 -27 -19 -47 6 -12 9 -32 6 -44 -5 -19 8 -29 107 -83 260 -142 550
-238 862 -285 138 -20 560 -17 705 5 281 44 567 139 810 269 460 247 813 609
1049 1075 128 253 208 511 246 793 19 135 20 209 3 192 -22 -22 -50 -12 -99
33 -77 72 -107 55 -97 -55 4 -34 18 -70 46 -117 23 -38 42 -78 42 -88 0 -16
-4 -15 -31 11 -54 51 -80 116 -99 254 -6 41 -15 90 -21 107 -9 28 -14 32 -35
27 -36 -9 -66 16 -102 84 -64 120 -119 132 -225 49 -54 -42 -70 -79 -77 -182
-7 -108 -23 -144 -72 -168 -46 -23 -84 -14 -108 25 -10 16 -39 104 -65 196
-25 92 -49 176 -52 186 -5 19 -6 19 -16 0 -19 -35 -31 -33 -81 20 -64 66 -132
98 -296 141 -71 18 -157 47 -191 65 -59 30 -64 31 -76 14 -30 -41 -3 -115 48
-133 24 -8 39 -7 66 4 55 23 73 20 73 -14 0 -21 10 -37 36 -58 45 -36 41 -60
-16 -92 -22 -12 -73 -53 -114 -90 -74 -69 -143 -106 -186 -99 -16 2 -27 14
-36 39 -6 20 -28 61 -47 90 -22 33 -38 73 -43 102 -5 37 -17 60 -51 100 -76
88 -95 137 -102 253 -8 132 -17 144 -110 144 -79 0 -131 22 -145 63 -17 47 -2
51 136 38 136 -14 166 -8 193 33 23 34 16 56 -25 84 -29 20 -35 30 -35 60 0
31 -4 38 -23 40 -15 2 -34 -5 -48 -19 -23 -21 -28 -22 -77 -12 -59 12 -97 3
-98 -24 0 -10 -1 -34 -2 -53 -2 -32 -5 -35 -49 -48 -59 -16 -73 -38 -58 -90
16 -60 14 -72 -18 -72 -17 0 -38 10 -52 25 -19 20 -22 31 -17 68 4 28 2 50 -6
59 -24 29 -179 110 -190 99 -16 -16 10 -65 54 -100 31 -26 39 -39 39 -65 0
-20 -8 -40 -19 -50 -19 -17 -20 -16 -39 27 -78 175 -261 212 -341 68 -14 -25
-42 -55 -69 -72 -49 -31 -140 -54 -173 -44 -20 7 -21 12 -14 74 4 36 11 71 17
78 5 7 27 11 49 10 79 -3 118 78 69 144 -23 33 -17 48 21 49 72 1 179 66 179
110 0 11 15 23 40 33 30 11 44 25 55 51 l15 36 31 -17 c82 -47 76 -45 135 -28
30 9 63 13 73 10 11 -3 32 6 55 24 22 18 44 27 53 24 14 -5 15 0 10 30 l-6 37
38 0 c46 0 84 24 61 40 -8 5 -33 15 -55 21 -73 20 -77 24 -58 64 22 45 6 85
-32 85 -34 0 -145 -61 -145 -79 0 -7 11 -24 25 -37 31 -29 31 -39 0 -70 -14
-14 -24 -34 -22 -47 2 -19 -3 -22 -35 -25 -29 -2 -38 0 -38 12 0 9 -10 26 -21
37 -18 18 -29 21 -74 15 -42 -5 -54 -3 -59 9 -9 25 5 47 68 110 34 33 69 79
80 102 16 35 28 45 85 71 94 43 134 52 238 52 127 0 186 -14 218 -52 14 -17
24 -36 22 -42 -2 -6 -23 -13 -47 -16 -53 -6 -60 -21 -21 -49 43 -31 83 -27
120 11 17 17 31 35 31 39 0 5 12 1 28 -8 26 -15 31 -14 102 17 94 42 200 70
261 70 39 0 49 4 54 20 6 20 31 26 51 12 6 -4 21 -26 34 -50 26 -46 60 -63 85
-42 24 20 18 38 -22 75 -24 22 -34 38 -28 43 14 13 156 41 257 51 90 9 118 21
118 50 0 13 -9 17 -33 17 -18 0 -43 7 -56 16 -22 16 -21 16 44 23 64 7 190 0
224 -13 34 -13 -13 30 -109 98 -336 240 -745 397 -1157 445 -115 13 -424 18
-523 8z m-884 -974 c141 -27 164 -34 164 -50 0 -10 10 -39 22 -64 27 -55 16
-77 -25 -50 -35 22 -66 11 -74 -26 -3 -16 -7 -29 -8 -29 -2 0 -27 11 -57 25
-29 14 -61 25 -70 25 -27 0 -31 18 -9 46 12 15 21 35 21 45 0 28 -70 25 -145
-6 -63 -26 -75 -23 -75 23 0 15 8 26 25 32 18 7 25 17 25 35 0 32 4 32 206 -6z"/>
<path d="M9471 7611 c-69 -26 -141 -73 -183 -119 -38 -42 -94 -140 -128 -224
-13 -32 -26 -56 -28 -53 -6 5 -31 -63 -131 -353 l-76 -222 -30 7 c-61 16 -128
8 -184 -22 -91 -50 -139 -139 -128 -240 22 -213 277 -299 423 -143 49 52 67
96 67 163 0 33 -1 66 -4 74 -3 9 12 19 41 28 366 122 710 278 806 365 63 58
118 161 135 251 32 179 -75 379 -249 465 -70 34 -83 37 -176 39 -81 3 -112 -1
-155 -16z m184 -222 c90 -23 165 -120 165 -214 0 -50 -49 -136 -97 -169 -78
-54 -188 -46 -260 17 -125 110 -84 306 74 363 47 16 63 17 118 3z"/>
<path d="M5526 6788 l-36 -53 37 -13 c48 -17 130 -19 145 -4 17 17 -10 42 -53
51 -29 6 -34 11 -34 36 -1 45 -19 40 -59 -17z"/>
<path d="M11645 6371 c-173 -45 -267 -218 -211 -387 22 -66 70 -122 137 -159
48 -27 63 -30 139 -30 69 0 93 5 127 23 67 35 110 79 139 140 69 145 5 322
-140 390 -51 24 -144 36 -191 23z m122 -168 c47 -22 73 -66 73 -124 0 -130
-172 -176 -245 -65 -38 58 -11 152 55 187 43 23 72 24 117 2z"/>
<path d="M5061 5654 c0 -11 3 -14 6 -6 3 7 2 16 -1 19 -3 4 -6 -2 -5 -13z"/>
<path d="M5051 5584 c0 -11 3 -14 6 -6 3 7 2 16 -1 19 -3 4 -6 -2 -5 -13z"/>
<path d="M10001 5574 c0 -11 3 -14 6 -6 3 7 2 16 -1 19 -3 4 -6 -2 -5 -13z"/>
<path d="M9971 5494 c-29 -37 -26 -80 9 -141 41 -72 55 -69 46 8 -3 34 -6 84
-6 110 0 57 -16 64 -49 23z"/>
<path d="M5042 5480 c0 -14 2 -19 5 -12 2 6 2 18 0 25 -3 6 -5 1 -5 -13z"/>
<path d="M5044 5082 c59 -602 317 -1139 747 -1557 l124 -120 6 65 c4 36 19 94
34 130 38 91 37 139 -7 225 -20 39 -39 90 -43 115 -9 57 -27 85 -68 106 -96
49 -146 119 -147 204 -1 55 -13 79 -67 125 -51 44 -58 63 -38 110 8 21 15 48
15 61 0 14 20 45 50 79 l50 55 0 74 c0 88 -11 101 -88 108 -62 6 -93 26 -139
89 -71 97 -70 96 -122 103 -28 4 -56 12 -63 20 -26 26 -55 35 -96 29 -30 -4
-47 -1 -60 10 -9 8 -34 20 -56 26 l-38 10 6 -67z"/>
<path d="M3604 2566 c-40 -38 -150 -96 -181 -96 -11 0 -32 14 -48 30 -49 51
-65 39 -92 -65 -33 -133 -64 -325 -66 -415 l-2 -80 -187 0 -188 0 0 44 c0 24
-11 129 -25 232 -22 162 -30 194 -52 226 -54 79 -193 112 -288 69 -39 -18 -41
-21 -59 -97 -24 -103 -45 -150 -90 -199 -49 -53 -96 -153 -103 -221 l-6 -54
-1108 0 -1109 0 0 -50 0 -50 6480 0 6480 0 0 50 0 50 -4344 0 -4344 0 -133
135 c-105 107 -158 172 -252 308 -155 226 -204 257 -283 183z"/>
</g>
</svg>
